<svg id="Layer_1" data-name="Layer 1" xmlns="http://www.w3.org/2000/svg" xmlns:xlink="http://www.w3.org/1999/xlink" viewBox="0 0 350 350"><defs><radialGradient id="radial-gradient" cx="-4982" cy="8777.63" r="697.12" gradientTransform="matrix(-0.16, 0.16, 0.15, 0.15, -1950.85, -363.48)" gradientUnits="userSpaceOnUse"><stop offset="0" stop-color="#fff" stop-opacity="0"/><stop offset="0.75" stop-color="#5a5a5a" stop-opacity="0"/><stop offset="1" stop-opacity="0.67"/></radialGradient><linearGradient id="linear-gradient" x1="-233.34" y1="-464.79" x2="-278.27" y2="-500.73" gradientTransform="matrix(1.67, 0, 0, -1.67, 674.61, -690.93)" gradientUnits="userSpaceOnUse"><stop offset="0" stop-color="#fff"/><stop offset="1" stop-color="#fff" stop-opacity="0"/></linearGradient><linearGradient id="linear-gradient-2" x1="-2764.26" y1="5280.23" x2="-2783.15" y2="5096.74" gradientTransform="matrix(-0.27, 0.36, 0.27, 0.21, -2092.51, -28.78)" gradientUnits="userSpaceOnUse"><stop offset="0" stop-color="#fff" stop-opacity="0"/><stop offset="1" stop-color="#fff"/></linearGradient><linearGradient id="linear-gradient-3" x1="-285.93" y1="-589.05" x2="-281.14" y2="-622.71" gradientTransform="matrix(1.67, 0, 0, -1.67, 674.61, -690.93)" xlink:href="#linear-gradient-2"/></defs><title>Bunty [Colors, Shadows And Overlay] -Var 1-2.0 By Khaleeq 13-Feb-2025</title><path d="M350,175A175,175,0,1,1,175,0,175,175,0,0,1,350,175Z" style="fill-rule:evenodd;opacity:0.453850001096725;isolation:isolate;fill:url(#radial-gradient)"/><path d="M219.41,31.64c-10.36,18-15.08,35.17-17.06,58.26,51.2,26.68,71,32.18,79.32,102.13,18.41-16.12,27.87-31.93,47.57-45.89l-.86-4.08s-.17-2.93-3.77-12.39-10.59-25-24.12-49c-.35-.61-.74-1.13-1.09-1.72-15.63,14.52-30.89,27.9-46,40.88l-5.57-5.34c15.55-13.38,31.23-27.21,47.28-42.18C267.58,33.91,219.41,31.64,219.41,31.64Z" style="fill-rule:evenodd;opacity:0.653850018978119;isolation:isolate;fill:url(#linear-gradient)"/><path d="M183.62,11.26S102.9,10.72,57.49,64.75C7.28,124.5,13.35,192,13.35,192l-1-1C59.62,90.71,137.21,54.12,183.63,11.26Z" style="fill-rule:evenodd;opacity:0.826919972896576;isolation:isolate;fill:url(#linear-gradient-2)"/><path d="M75.3,307.27s66.4,45.91,134.35,26.84C284.79,313,317.81,253.8,317.81,253.8l.32,1.4c-95.62,56.25-169,57.16-242.83,52.07Z" style="fill-rule:evenodd;opacity:0.826919972896576;isolation:isolate;fill:url(#linear-gradient-3)"/></svg>