<svg width="380" height="104" viewBox="0 0 380 104" fill="none" xmlns="http://www.w3.org/2000/svg">
<path d="M359.234 4.37476H20.7651C9.29676 4.37476 0 16.9393 0 32.4385V75.9363C0 91.4355 9.29676 104 20.7651 104H359.234C370.703 104 380 91.4355 380 75.9363V32.4385C380 16.9393 370.703 4.37476 359.234 4.37476Z" fill="url(#paint0_linear_318_1803)"/>
<path d="M359.518 0H27.6985C16.3862 0 7.21582 11.6535 7.21582 26.0282V71.5774C7.21582 85.9521 16.3862 97.6056 27.6985 97.6056H359.518C370.83 97.6056 380 85.9521 380 71.5774V26.0282C380 11.6535 370.83 0 359.518 0Z" fill="url(#paint1_linear_318_1803)"/>
<defs>
<linearGradient id="paint0_linear_318_1803" x1="380" y1="104" x2="43.6919" y2="-17.2189" gradientUnits="userSpaceOnUse">
<stop offset="0.115" stop-color="#081D26"/>
<stop offset="0.225" stop-color="#54AAB9"/>
<stop offset="0.37" stop-color="#DBFDFC"/>
<stop offset="0.595" stop-color="#DBFDFC"/>
<stop offset="0.765" stop-color="#56ACBB"/>
<stop offset="0.855" stop-color="#081D26"/>
</linearGradient>
<linearGradient id="paint1_linear_318_1803" x1="193.606" y1="0.325352" x2="193.606" y2="97.9309" gradientUnits="userSpaceOnUse">
<stop stop-color="#F6F9F6"/>
<stop offset="1" stop-color="#D1DBDA"/>
</linearGradient>
</defs>
</svg>
