<svg width="184" height="25" viewBox="0 0 184 25" fill="none" xmlns="http://www.w3.org/2000/svg">
<path d="M6.58117 5.28H6.40117C6.25717 6.864 6.00517 9.84 5.64517 14.208C5.28517 18.552 5.10517 20.916 5.10517 21.3C5.10517 22.044 5.47717 22.416 6.22117 22.416L7.69717 22.38L7.76917 22.524L7.44517 24.144C7.18117 24.12 6.70117 24.084 6.00517 24.036C5.33317 24.012 4.64917 24 3.95317 24C3.35317 24 2.72917 24.036 2.08117 24.108C1.45717 24.204 1.04917 24.264 0.857172 24.288L1.03717 22.632C1.80517 22.536 2.35717 22.296 2.69317 21.912C3.02917 21.504 3.24517 20.82 3.34117 19.86C3.58117 17.604 3.89317 14.568 4.27717 10.752C4.68517 6.912 4.88917 4.764 4.88917 4.308C4.88917 3.684 4.63717 3.216 4.13317 2.904C3.65317 2.592 2.87317 2.4 1.79317 2.328L1.68517 2.148L1.97317 0.887999C2.28517 0.911999 2.89717 0.947999 3.80917 0.995998C4.72117 1.044 5.41717 1.068 5.89717 1.068C6.32917 1.068 6.79717 1.056 7.30117 1.032C7.82917 0.983999 8.17717 0.947999 8.34517 0.923999C9.30517 4.02 10.2292 6.9 11.1172 9.564C12.0292 12.204 12.7732 14.304 13.3492 15.864C13.9252 17.424 14.2852 18.396 14.4292 18.78H14.6092C14.9452 17.892 15.7132 15.78 16.9132 12.444C18.1132 9.108 19.4212 5.292 20.8372 0.995998C20.8372 0.971998 21.1612 0.983999 21.8092 1.032L23.2132 1.068C23.6692 1.068 24.3532 1.044 25.2652 0.995998C26.1772 0.923999 26.7892 0.875999 27.1012 0.852L27.1732 0.995998L26.9932 2.328C25.9612 2.448 25.2292 2.664 24.7972 2.976C24.3652 3.264 24.1492 3.708 24.1492 4.308C24.1492 4.836 24.2572 6.804 24.4732 10.212C24.6892 13.596 24.8932 16.524 25.0852 18.996C25.2052 19.98 25.3252 20.712 25.4452 21.192C25.5652 21.648 25.7332 21.972 25.9492 22.164C26.1652 22.332 26.4652 22.416 26.8492 22.416C27.0652 22.416 27.2692 22.404 27.4612 22.38C27.6532 22.356 27.7852 22.344 27.8572 22.344L27.9292 22.488L27.6052 24.108C27.3652 24.084 26.9092 24.06 26.2372 24.036C25.5892 24.012 24.9052 24 24.1852 24C23.5372 24 22.8052 24.036 21.9892 24.108C21.1972 24.204 20.6812 24.264 20.4412 24.288L20.5852 22.632C21.3292 22.536 21.8692 22.344 22.2052 22.056C22.5412 21.768 22.7092 21.36 22.7092 20.832C22.7092 20.328 22.5292 17.988 22.1692 13.812C21.8332 9.636 21.6052 6.792 21.4852 5.28H21.3052L14.3572 24.432L13.4932 24.684L6.58117 5.28ZM36.8816 23.048C37.5536 22.9173 38.039 22.7493 38.3376 22.544C38.6363 22.3387 38.8323 22.0587 38.9256 21.704C39.019 21.3493 39.0656 20.7893 39.0656 20.024V18.792C39.0656 18.2133 39.0096 17.7093 38.8976 17.28C38.7856 16.832 38.571 16.2813 38.2536 15.628L35.7336 10.504C35.2483 9.51467 34.903 8.852 34.6976 8.516C34.4923 8.16133 34.203 7.88133 33.8296 7.676C33.4563 7.47067 32.915 7.34 32.2056 7.284L32.1496 7.172L32.3176 6.08C32.523 6.09867 32.915 6.11733 33.4936 6.136C34.0723 6.15467 34.707 6.164 35.3976 6.164C36.051 6.164 36.807 6.136 37.6656 6.08C38.543 6.00533 39.1123 5.95867 39.3736 5.94L39.4576 6.136L39.3736 7.116C38.5336 7.19067 37.9643 7.30267 37.6656 7.452C37.3856 7.58267 37.2456 7.80667 37.2456 8.124C37.2456 8.36667 37.479 9.02933 37.9456 10.112C38.4123 11.1947 38.8883 12.2587 39.3736 13.304C39.8776 14.3493 40.2136 15.0307 40.3816 15.348H40.5216L43.7136 9.412C44.0123 8.87067 44.1616 8.404 44.1616 8.012C44.1616 7.52667 43.5736 7.24667 42.3976 7.172L42.3416 7.06L42.5096 5.968C42.7336 5.98667 43.2003 6.024 43.9096 6.08C44.619 6.136 45.1883 6.164 45.6176 6.164C46.0656 6.164 46.5603 6.15467 47.1016 6.136C47.6616 6.09867 48.0256 6.07067 48.1936 6.052L48.3056 6.248L48.1376 7.284C47.5403 7.396 47.0736 7.55467 46.7376 7.76C46.4016 7.94667 46.103 8.22667 45.8416 8.6C45.599 8.95467 45.235 9.56133 44.7496 10.42C44.6376 10.644 44.5443 10.812 44.4696 10.924L41.6696 15.852C41.427 16.2813 41.2683 16.7667 41.1936 17.308C41.1376 17.8493 41.091 18.8293 41.0536 20.248V20.864C41.035 21.592 41.1096 22.096 41.2776 22.376C41.4643 22.6373 41.8003 22.768 42.2856 22.768C42.5843 22.768 42.8643 22.7587 43.1256 22.74C43.387 22.7213 43.5643 22.7027 43.6576 22.684L43.7136 22.796L43.4616 24.084C43.2003 24.0653 42.715 24.0467 42.0056 24.028C41.315 24.0093 40.615 24 39.9056 24C39.327 24 38.7016 24.0467 38.0296 24.14C37.3576 24.2333 36.919 24.2987 36.7136 24.336L36.8816 23.048ZM59.0772 24.336C57.5652 24.336 56.2212 23.972 55.0452 23.244C53.8692 22.516 52.9545 21.4987 52.3012 20.192C51.6478 18.8667 51.3212 17.364 51.3212 15.684C51.3212 13.8547 51.7225 12.1933 52.5252 10.7C53.3465 9.188 54.4572 8.00267 55.8572 7.144C57.2758 6.26667 58.8345 5.828 60.5332 5.828C62.0825 5.828 63.4545 6.192 64.6492 6.92C65.8438 7.648 66.7772 8.66533 67.4492 9.972C68.1212 11.2787 68.4572 12.772 68.4572 14.452C68.4572 16.2813 68.0372 17.952 67.1972 19.464C66.3758 20.976 65.2465 22.1707 63.8092 23.048C62.3905 23.9067 60.8132 24.336 59.0772 24.336ZM59.9452 22.908C61.1212 22.908 62.1665 22.6 63.0812 21.984C63.9958 21.368 64.7052 20.5093 65.2092 19.408C65.7132 18.3067 65.9652 17.0467 65.9652 15.628C65.9652 14.0413 65.6945 12.6413 65.1532 11.428C64.6118 10.196 63.8558 9.23467 62.8852 8.544C61.9332 7.85333 60.8318 7.508 59.5812 7.508C58.4425 7.508 57.4252 7.816 56.5292 8.432C55.6518 9.048 54.9612 9.90667 54.4572 11.008C53.9718 12.1093 53.7292 13.3693 53.7292 14.788C53.7292 16.3747 53.9905 17.784 54.5132 19.016C55.0358 20.2293 55.7638 21.1813 56.6972 21.872C57.6492 22.5627 58.7318 22.908 59.9452 22.908ZM84.7919 24.432C82.6319 24.432 80.7359 23.976 79.1039 23.064C77.4719 22.152 76.2119 20.868 75.3239 19.212C74.4599 17.532 74.0279 15.564 74.0279 13.308C74.0279 10.908 74.5679 8.748 75.6479 6.828C76.7279 4.884 78.2159 3.372 80.1119 2.292C82.0319 1.188 84.1919 0.635998 86.5919 0.635998C87.4799 0.635998 88.3799 0.707999 89.2919 0.852C90.2279 0.972 91.0079 1.104 91.6319 1.248C92.2799 1.368 92.6879 1.452 92.8559 1.5L92.9999 1.716C92.9519 1.86 92.8679 2.208 92.7479 2.76C92.6519 3.312 92.5319 4.032 92.3879 4.92C92.2679 5.808 92.1719 6.744 92.0999 7.728L90.3719 7.872C90.3959 7.752 90.4199 7.536 90.4439 7.224C90.4679 6.888 90.4799 6.516 90.4799 6.108C90.4799 3.876 88.7159 2.76 85.1879 2.76C83.6039 2.76 82.2119 3.144 81.0119 3.912C79.8119 4.68 78.8879 5.772 78.2399 7.188C77.5919 8.58 77.2679 10.224 77.2679 12.12C77.2679 14.208 77.6039 16.044 78.2759 17.628C78.9719 19.212 79.9439 20.448 81.1919 21.336C82.4399 22.2 83.8799 22.632 85.5119 22.632C87.1439 22.632 88.4519 22.176 89.4359 21.264C90.4439 20.328 91.1759 18.888 91.6319 16.944L93.3599 16.8C93.2879 17.16 93.1319 17.964 92.8919 19.212C92.6519 20.436 92.4839 21.588 92.3879 22.668L92.1719 22.992C92.1719 23.016 91.7999 23.16 91.0559 23.424C90.3359 23.664 89.4239 23.892 88.3199 24.108C87.2399 24.324 86.0639 24.432 84.7919 24.432ZM99.859 23.048C100.736 22.88 101.324 22.6373 101.623 22.32C101.94 21.984 102.099 21.424 102.099 20.64L102.127 8.88C102.127 8.28267 102.052 7.88133 101.903 7.676C101.772 7.47067 101.502 7.368 101.091 7.368L99.915 7.424L99.859 7.312L100.055 6.08C100.354 6.08 100.587 6.08933 100.755 6.108L103.387 6.164C104.227 6.164 105.3 6.08 106.607 5.912L106.495 7.172C105.73 7.26533 105.207 7.424 104.927 7.648C104.666 7.85333 104.516 8.22667 104.479 8.768C104.367 10.952 104.274 13.2387 104.199 15.628C104.124 17.9987 104.087 19.744 104.087 20.864C104.087 21.6293 104.171 22.1427 104.339 22.404C104.507 22.6467 104.834 22.768 105.319 22.768C105.636 22.768 106.131 22.74 106.803 22.684L106.859 22.796L106.607 24.084C106.346 24.084 106.14 24.0747 105.991 24.056C104.684 24.0187 103.667 24 102.939 24C102.024 24 100.942 24.112 99.691 24.336L99.859 23.048ZM125.576 24.448C125.11 24.448 124.606 24.2147 124.064 23.748C123.542 23.2627 123.056 22.6093 122.608 21.788L119.612 16.356H117.288L117.204 20.528C117.204 21.2373 117.251 21.7507 117.344 22.068C117.438 22.3667 117.615 22.572 117.876 22.684C118.138 22.7773 118.586 22.824 119.22 22.824L119.276 22.936L119.024 24.112C118.8 24.0933 118.352 24.0747 117.68 24.056C117.008 24.0373 116.308 24.028 115.58 24.028C114.927 24.028 114.348 24.0373 113.844 24.056C113.34 24.0747 113.004 24.0933 112.836 24.112L113.088 22.852C113.686 22.7773 114.134 22.6747 114.432 22.544C114.731 22.4133 114.936 22.208 115.048 21.928C115.16 21.6293 115.216 21.2 115.216 20.64L115.244 8.88C115.244 8.28267 115.17 7.88133 115.02 7.676C114.89 7.47067 114.619 7.368 114.208 7.368C114.022 7.368 113.835 7.37733 113.648 7.396C113.462 7.41467 113.331 7.424 113.256 7.424L113.2 7.312L113.396 6.08C113.62 6.09867 114.04 6.11733 114.656 6.136C115.272 6.15467 115.888 6.164 116.504 6.164C117.139 6.164 117.802 6.15467 118.492 6.136C119.202 6.09867 119.687 6.07067 119.948 6.052C121.684 6.052 123.056 6.444 124.064 7.228C125.072 8.012 125.576 9.08533 125.576 10.448C125.576 11.568 125.212 12.5947 124.484 13.528C123.775 14.4613 122.767 15.2267 121.46 15.824L124.54 20.696C125.082 21.592 125.604 22.2173 126.108 22.572C126.631 22.908 127.266 23.076 128.012 23.076L128.124 23.188L127.956 24.14L125.576 24.448ZM120.228 15.068C120.228 15.124 120.508 15.0027 121.068 14.704C121.628 14.4053 122.132 13.948 122.58 13.332C123.028 12.716 123.252 11.9227 123.252 10.952C123.252 8.488 121.544 7.256 118.128 7.256C117.942 7.256 117.811 7.30267 117.736 7.396C117.68 7.47067 117.643 7.63867 117.624 7.9C117.456 10.756 117.363 13.052 117.344 14.788L120.228 15.068ZM140.576 24.336C138.896 24.336 137.421 23.9813 136.152 23.272C134.883 22.5627 133.903 21.564 133.212 20.276C132.54 18.9693 132.204 17.4387 132.204 15.684C132.204 13.8173 132.624 12.1373 133.464 10.644C134.304 9.132 135.461 7.956 136.936 7.116C138.429 6.25733 140.109 5.828 141.976 5.828C142.667 5.828 143.367 5.884 144.076 5.996C144.804 6.08933 145.411 6.192 145.896 6.304C146.4 6.39733 146.717 6.46267 146.848 6.5L146.96 6.668C146.923 6.78 146.857 7.05067 146.764 7.48C146.689 7.90933 146.596 8.46933 146.484 9.16C146.391 9.85067 146.316 10.5787 146.26 11.344L144.916 11.456C144.935 11.3627 144.953 11.1947 144.972 10.952C144.991 10.6907 145 10.4013 145 10.084C145 8.348 143.628 7.48 140.884 7.48C139.652 7.48 138.569 7.77867 137.636 8.376C136.703 8.97333 135.984 9.82267 135.48 10.924C134.976 12.0067 134.724 13.2853 134.724 14.76C134.724 16.384 134.985 17.812 135.508 19.044C136.049 20.276 136.805 21.2373 137.776 21.928C138.747 22.6 139.867 22.936 141.136 22.936C142.405 22.936 143.423 22.5813 144.188 21.872C144.972 21.144 145.541 20.024 145.896 18.512L147.24 18.4C147.184 18.68 147.063 19.3053 146.876 20.276C146.689 21.228 146.559 22.124 146.484 22.964L146.316 23.216C146.316 23.2347 146.027 23.3467 145.448 23.552C144.888 23.7387 144.179 23.916 143.32 24.084C142.48 24.252 141.565 24.336 140.576 24.336ZM153.683 22.992C154.411 22.88 154.906 22.6653 155.167 22.348C155.447 22.012 155.587 21.4427 155.587 20.64L155.615 8.88C155.615 8.28267 155.541 7.88133 155.391 7.676C155.261 7.47067 154.99 7.368 154.579 7.368C154.393 7.368 154.206 7.37733 154.019 7.396C153.833 7.41467 153.702 7.424 153.627 7.424L153.571 7.312L153.767 6.08C153.991 6.09867 154.411 6.11733 155.027 6.136C155.643 6.15467 156.269 6.164 156.903 6.164C157.407 6.164 157.977 6.136 158.611 6.08C159.265 6.00533 159.694 5.94933 159.899 5.912L159.787 7.172C159.171 7.24667 158.742 7.368 158.499 7.536C158.275 7.704 158.135 7.9 158.079 8.124C158.042 8.348 157.995 8.89867 157.939 9.776C157.827 11.3627 157.743 13.1733 157.687 15.208C157.631 17.2427 157.603 19.0347 157.603 20.584C157.603 21.256 157.659 21.7413 157.771 22.04C157.883 22.32 158.089 22.5067 158.387 22.6C158.705 22.6933 159.237 22.74 159.983 22.74C161.122 22.74 161.953 22.6467 162.475 22.46C163.017 22.2733 163.418 21.9093 163.679 21.368C163.959 20.8267 164.211 19.9587 164.435 18.764L165.667 18.624L165.751 18.764C165.695 19.0627 165.574 19.7347 165.387 20.78C165.219 21.8253 165.07 22.9267 164.939 24.084L164.799 24.252C164.258 24.2147 163.138 24.1587 161.439 24.084C159.759 24.028 158.369 24 157.267 24C156.39 24 155.587 24.0373 154.859 24.112C154.15 24.1867 153.702 24.2427 153.515 24.28L153.683 22.992ZM183.152 19.324C182.835 20.836 182.583 22.404 182.396 24.028L182.256 24.196C178.336 24.0653 175.508 24 173.772 24C172.391 24 171.093 24.0933 169.88 24.28L170.048 22.992C170.888 22.88 171.457 22.6653 171.756 22.348C172.073 22.012 172.232 21.4427 172.232 20.64L172.26 8.88C172.26 8.28267 172.185 7.88133 172.036 7.676C171.905 7.47067 171.635 7.368 171.224 7.368L170.272 7.424L170.216 7.312L170.412 6.08C172.316 6.136 173.613 6.164 174.304 6.164C176.525 6.164 178.252 6.14533 179.484 6.108C180.716 6.052 181.789 5.95867 182.704 5.828L182.788 5.996C182.452 7.47067 182.237 9.02 182.144 10.644L180.8 10.756L180.856 9.552C180.856 8.89867 180.772 8.45067 180.604 8.208C180.436 7.94667 180.072 7.77867 179.512 7.704C178.952 7.61067 177.972 7.564 176.572 7.564C175.919 7.564 175.471 7.58267 175.228 7.62C174.985 7.65733 174.827 7.75067 174.752 7.9C174.677 8.03067 174.631 8.28267 174.612 8.656L174.388 14.088L177.272 14.116C178 14.116 179.139 14.0133 180.688 13.808L180.8 13.948L180.408 15.6C178.336 15.544 177.029 15.516 176.488 15.516C175.872 15.516 175.153 15.5813 174.332 15.712L174.22 21.06C174.22 21.6013 174.267 21.984 174.36 22.208C174.453 22.4133 174.64 22.5533 174.92 22.628C175.219 22.7027 175.723 22.74 176.432 22.74C178 22.74 179.111 22.6653 179.764 22.516C180.436 22.3667 180.912 22.068 181.192 21.62C181.472 21.172 181.687 20.4067 181.836 19.324L183.068 19.184L183.152 19.324Z" fill="#3E52A8"/>
</svg>
